<svg width="153" height="153" viewBox="0 0 153 153" fill="none" xmlns="http://www.w3.org/2000/svg">
<path d="M35.7983 63.4909V140.97C35.7983 146.773 40.4704 151.445 46.2738 151.445H121.829C127.632 151.445 132.304 146.773 132.304 140.97V58.7021L35.7983 63.4909Z" fill="#0060FF"/>
<path d="M35.7983 63.4909V140.97C35.7983 141.272 35.8137 141.571 35.8387 141.867H108.143C113.947 141.867 118.619 137.195 118.619 131.392V86.5486L132.304 72.8633V58.7021L35.7983 63.4909Z" fill="#0043E0"/>
<path d="M5.86328 41.2461V122.819C5.86328 128.613 10.528 133.278 16.3223 133.278H99.0084C104.803 133.278 109.467 128.613 109.467 122.819V12.2522C109.467 6.45791 104.803 1.79321 99.0084 1.79321H45.3162L5.86328 41.2461Z" fill="#52C7FF"/>
<path d="M45.3162 1.79321L5.86328 41.2461H34.8572C40.6515 41.2461 45.3162 36.5814 45.3162 30.7871V1.79321Z" fill="#009FFF"/>
<path d="M131.971 25.136C129.395 22.5608 125.249 22.5608 122.674 25.136L63.9766 83.8335L86.5175 106.374L145.215 47.6769C147.79 45.1018 147.79 40.9555 145.215 38.3804L131.971 25.136Z" fill="#009FFF"/>
<path d="M140.708 33.8728C143.283 36.4479 143.283 40.5943 140.708 43.1694L82.0103 101.867L86.5179 106.375L145.215 47.6771C147.791 45.1019 147.791 40.9556 145.215 38.3804L140.708 33.8728Z" fill="#2979FF"/>
<path d="M114.155 33.6558L105.01 42.8005L127.551 65.3414L136.695 56.1967L114.155 33.6558Z" fill="#E7EDFB"/>
<path d="M132.188 51.689L123.043 60.8337L127.551 65.3413L136.695 56.1966L132.188 51.689Z" fill="#AAC9FB"/>
<path d="M131.97 25.136C129.395 22.5608 125.249 22.5608 122.674 25.136L112.182 35.6277L134.723 58.1687L145.215 47.6769C147.79 45.1018 147.79 40.9555 145.215 38.3804L131.97 25.136Z" fill="#009FFF"/>
<path d="M74.5501 84.7089H68.5847C67.0734 84.7089 65.7187 84.062 64.781 83.0291L59.897 87.9131C58.33 89.4801 57.8213 90.7545 57.7578 92.7256L57.8238 108.198C57.8238 109.595 58.2061 110.646 58.9651 111.386C59.7053 112.145 60.7562 112.527 62.1531 112.527L77.6254 112.593C79.5964 112.53 80.8709 112.021 82.4379 110.454L87.3219 105.57C86.2889 104.632 85.642 103.278 85.6421 101.766V95.8009L79.6761 95.8003C78.2562 95.8003 76.9745 95.2295 76.047 94.3039C75.1215 93.3764 74.5506 92.0947 74.5506 90.6748L74.5501 84.7089Z" fill="#0060FF"/>
<path d="M70.0428 84.709V86.1671C70.0428 89.212 71.0816 91.2591 74.5842 91.2591C74.5629 91.0673 74.5501 90.8725 74.5501 90.6748L74.5498 84.709H70.0428ZM81.1343 95.8005C81.1343 95.8005 80.6707 99.1163 82.8144 101.062L77.9301 105.946C76.363 107.513 75.0885 108.022 73.1175 108.086L57.8232 108.02L57.8239 108.198C57.8239 109.595 58.2061 110.646 58.9652 111.386C59.7053 112.145 60.756 112.527 62.1529 112.527L77.6252 112.593C79.5962 112.53 80.8707 112.021 82.4377 110.454L87.322 105.57C86.2891 104.632 85.6419 103.278 85.6419 101.766V95.801L81.1343 95.8005Z" fill="#0043E0"/>
<path d="M57.7725 96.0967L57.8243 108.198C57.8243 109.595 58.2065 110.646 58.9656 111.386C59.7057 112.145 60.7567 112.527 62.1535 112.527L74.2548 112.579L57.7725 96.0967Z" fill="#E7EDFB"/>
<path d="M140.93 33.9265C143.508 36.5057 143.508 40.6579 140.929 43.2369L130.421 53.7451L134.936 58.2597L145.444 47.7515C148.023 45.1724 148.023 41.0197 145.444 38.4405L140.93 33.9265Z" fill="#0082FF"/>
<path d="M57.9146 108.207L57.9151 108.368C57.9151 109.767 58.2977 110.819 59.058 111.561C59.7992 112.321 60.8518 112.704 62.2509 112.704L74.3713 112.756L69.8567 108.241L57.9146 108.207Z" fill="#AAC9FB"/>
<path d="M25.4897 54.9299H32.0639C36.2027 54.9299 39.5347 58.262 39.5347 62.4006V68.9749C39.5347 73.1136 36.2027 76.4456 32.0639 76.4456H25.4897C21.351 76.4456 18.019 73.1136 18.019 68.9749V62.4006C18.019 58.262 21.351 54.9299 25.4897 54.9299Z" fill="#E7EDFB"/>
<path d="M25.4897 90.9419H32.0639C36.2027 90.9419 39.5347 94.2739 39.5347 98.4126V104.987C39.5347 109.126 36.2027 112.458 32.0639 112.458H25.4897C21.351 112.458 18.019 109.126 18.019 104.987V98.4126C18.019 94.2739 21.351 90.9419 25.4897 90.9419Z" fill="#E7EDFB"/>
<path d="M49.0728 13.8918V15.0875H51.4618V13.8918H49.0728ZM55.0486 13.8918V15.0875H57.4398V13.8918H55.0486ZM61.0244 13.8918V15.0875H63.4156V13.8918H61.0244ZM67.0024 13.8918V15.0875H69.3914V13.8918H67.0024ZM72.9783 13.8918V15.0875H75.3695V13.8918H72.9783ZM78.9541 13.8918V15.0875H81.3453V13.8918H78.9541ZM84.9321 13.8918V15.0875H87.3211V13.8918H84.9321ZM90.908 13.8918V15.0875H93.2992V13.8918H90.908ZM96.8838 13.8918V15.0875H99.275V13.8918H96.8838ZM102.862 13.8918V15.0875H105.251V13.8918H102.862Z" fill="#E7EDFB"/>
<path d="M10.7593 121.878V123.073H13.1483V121.878H10.7593ZM16.7351 121.878V123.073H19.1263V121.878H16.7351ZM22.7109 121.878V123.073H25.1021V121.878H22.7109ZM28.689 121.878V123.073H31.078V121.878H28.689ZM34.6648 121.878V123.073H37.056V121.878H34.6648ZM40.6406 121.878V123.073H43.0318V121.878H40.6406ZM46.6187 121.878V123.073H49.0077V121.878H46.6187ZM52.5945 121.878V123.073H54.9857V121.878H52.5945ZM58.5703 121.878V123.073H60.9615V121.878H58.5703ZM64.5483 121.878V123.073H66.9373V121.878H64.5483ZM70.5242 121.878V123.073H72.9154V121.878H70.5242ZM76.5 121.878V123.073H78.8912V121.878H76.5ZM82.478 121.878V123.073H84.867V121.878H82.478ZM88.4538 121.878V123.073H90.8451V121.878H88.4538ZM94.4297 121.878V123.073H96.8209V121.878H94.4297ZM100.408 121.878V123.073H102.797V121.878H100.408Z" fill="#E7EDFB"/>
<path d="M57.5305 28.1538C56.8699 28.1538 56.3342 28.6887 56.3333 29.3492C56.333 30.0107 56.869 30.547 57.5305 30.547H73.4003C74.062 30.5473 74.5984 30.0109 74.5981 29.3492C74.5972 28.6885 74.061 28.1535 73.4003 28.1538H57.5305ZM57.5305 38.883C56.8693 38.883 56.3333 39.419 56.3333 40.0802C56.333 40.7416 56.869 41.2779 57.5305 41.2779H95.5297C96.1914 41.2782 96.7278 40.7418 96.7275 40.0802C96.7275 39.4187 96.1911 38.8826 95.5297 38.883H57.5305ZM49.8551 58.449C49.1943 58.4499 48.6593 58.9861 48.6596 59.6468C48.6596 60.3073 49.1946 60.843 49.8551 60.844H66.6357C67.296 60.8428 67.8305 60.3071 67.8305 59.6468C67.8308 58.9863 67.2962 58.4503 66.6357 58.449H49.8551ZM31.4266 62.6977L27.7812 66.343L26.2169 64.7793C25.7495 64.3123 24.992 64.3123 24.5246 64.7793C24.0576 65.2468 24.0576 66.0042 24.5246 66.4716L26.9348 68.8842C27.4031 69.352 28.1623 69.351 28.6294 68.8818L33.1189 64.3923C33.5875 63.9246 33.5875 63.1653 33.1189 62.6976C32.6848 62.2635 31.9165 62.209 31.4266 62.6977ZM121.828 150.247H46.2734C41.1125 150.247 126.989 150.247 121.828 150.247ZM49.8551 69.7896C49.1943 69.7905 48.6593 70.3267 48.6596 70.9874C48.6605 71.6473 49.1953 72.1819 49.8551 72.1829H59.4905C60.151 72.1829 60.6867 71.6479 60.6877 70.9874C60.688 70.326 60.1519 69.7896 59.4905 69.7896H49.8551ZM31.4266 98.7684L27.7812 102.411L26.2169 100.847C25.7495 100.38 24.992 100.38 24.5246 100.847C24.0576 101.315 24.0576 102.072 24.5246 102.539L26.9348 104.953C27.4025 105.421 28.1617 105.421 28.6294 104.953L33.1189 100.461C33.5859 99.9933 33.5859 99.2359 33.1189 98.7684C32.5859 98.2355 31.8219 98.3719 31.4266 98.7684Z" fill="#0060FF"/>
</svg>
