<svg width="226" height="161" viewBox="0 0 226 161" fill="none" xmlns="http://www.w3.org/2000/svg">
<path d="M179.426 140.575V140.693L175.826 142.982L174.116 143.402L164.155 145.85C163.268 144.951 162.725 143.171 162.521 140.486C158.313 144.011 153.849 145.761 149.14 145.761C143.369 145.761 138.753 143.739 135.281 139.682C131.844 135.625 130.116 130.007 130.116 122.821C130.116 115.636 131.995 109.787 135.765 105.375C139.447 100.928 144.069 98.71 149.624 98.71C152.017 98.7692 154.281 99.1654 156.399 99.8928V102.59C155.162 102.122 153.919 101.886 152.67 101.886C148.901 101.856 145.942 103.672 143.8 107.344C141.735 110.952 140.708 115.766 140.708 121.792C140.678 127.872 141.84 132.898 144.191 136.867C146.607 140.888 149.583 142.816 153.108 142.633C155.349 142.449 157.485 141.349 159.515 139.327C161.517 137.121 162.521 134.347 162.521 131.006V87.8343C162.521 86.001 162.258 84.5462 161.75 83.458C161.581 83.1032 161.389 82.7897 161.161 82.5177C160.146 81.2758 158.564 80.8677 156.423 81.2935V79.679L173.025 77V133.987C173.036 137.293 173.947 139.374 175.738 140.238C176.707 140.705 177.932 140.817 179.426 140.563" fill="#FAF8F5"/>
<path d="M202.529 99.84C204.443 100.633 205.733 100.934 206.392 100.751C207.081 100.567 207.378 100.112 207.291 99.3847H208.819L210.255 113.04H208.819C208.248 109.249 206.725 106.245 204.239 104.027C203.282 103.057 201.974 102.3 200.329 101.75C198.981 101.206 197.481 100.946 195.836 100.976C193.56 100.946 191.628 101.614 190.041 102.98C188.78 104.009 188.063 105.405 187.888 107.167C187.765 108.806 188.308 110.266 189.504 111.538C190.519 112.537 193.233 113.892 197.633 115.589C201.735 116.985 204.641 118.197 206.345 119.232C211.014 122.118 213.231 126.305 212.992 131.793C212.782 136.01 211.212 139.641 208.277 142.675C205.283 145.679 201.105 146.909 195.748 146.359C193.711 146.117 191.867 145.708 190.222 145.129C186.598 143.763 184.398 143.231 183.622 143.532C182.875 143.804 182.484 144.52 182.455 145.673H180.973L180.704 131.107H182.14C182.35 132.716 182.694 134.129 183.173 135.341C183.651 136.465 184.55 137.666 185.869 138.937C188.652 141.575 191.978 143.201 195.841 143.804C199.226 144.289 201.951 143.852 204.017 142.485C205.902 141.208 206.905 139.54 207.028 137.476C207.296 135.442 206.847 133.685 205.68 132.195C204.84 131.166 203.492 130.238 201.636 129.422C199.15 128.327 196.892 127.464 194.855 126.825C192.253 125.855 190.333 125.11 189.107 124.596C183.686 121.864 181.037 117.617 181.159 111.851C181.276 108.06 182.566 104.902 185.022 102.383C187.654 99.8341 191.237 98.5745 195.76 98.604C198.035 98.604 200.294 99.0121 202.54 99.8341" fill="#FAF8F5"/>
<path d="M134.685 141.03C132.351 142.568 130.349 143.159 128.686 142.804C127.227 142.361 126.498 140.764 126.498 138.014V115.736C126.527 111.774 125.932 108.574 124.701 106.15C122.366 101.413 116.572 99.0471 107.317 99.0471C101.855 99.1063 97.5656 100.425 94.4436 102.998C92.5471 104.565 91.6718 106.179 91.8177 107.835C91.9927 108.988 92.4887 109.876 93.3057 110.496C94.2686 111.147 95.2314 111.354 96.1943 111.117C97.0988 110.94 97.8749 110.479 98.5168 109.74C99.2171 109 99.8181 108.007 100.314 106.765C101.277 104.34 101.919 102.98 102.24 102.684C103.261 101.708 104.953 101.218 107.323 101.218C113.129 101.218 116.064 103.14 116.122 106.99V126.559C116.122 131.059 115.317 134.767 113.712 137.701C112.166 140.598 109.931 142.047 107.013 142.047C104.621 142.077 102.794 141.16 101.54 139.297C100.343 137.434 99.7014 135.288 99.6139 132.863C99.5847 130.409 100.081 128.221 101.102 126.293C102.123 124.341 103.716 122.845 105.875 121.81C107.019 121.23 108.07 120.674 109.032 120.13C111.512 118.746 113.047 116.115 113.047 113.246C110.305 115.866 105.724 118.327 99.3046 120.609C92.5296 122.975 89.145 127.239 89.145 133.389C89.145 137.204 90.3821 140.238 92.8681 142.485C95.4065 144.703 98.5635 145.885 102.327 146.033C105.712 146.063 108.606 145.395 110.999 144.034C113.479 142.615 115.288 140.971 116.426 139.108C116.776 143.52 119.898 145.72 125.798 145.72C128.92 145.72 131.131 145.111 134.399 142.893L134.685 141.018V141.03Z" fill="#FAF8F5"/>
<path d="M80.4332 113.749C80.4799 113.252 80.4916 112.744 80.4857 112.223C80.3982 109.799 79.7563 107.658 78.5542 105.795C77.2996 103.932 75.473 103.015 73.0805 103.045C71.6741 103.045 70.4253 103.382 69.3399 104.056C68.167 104.778 67.1808 105.89 66.3814 107.392C65.7219 108.604 65.1967 109.946 64.8058 111.425C64.2456 113.524 63.9713 115.896 63.9713 118.534V130.024C63.9713 130.024 63.9713 130.024 63.983 130.012V137.742H63.9946C63.9946 137.86 63.9771 137.979 63.9771 138.097C64.0355 141.941 66.9649 143.869 72.7829 143.869C75.1463 143.869 76.8385 143.378 77.8598 142.402C78.1807 142.106 78.8226 140.746 79.7913 138.322C80.2873 137.074 80.8884 136.086 81.5886 135.347C82.2305 134.608 83.0067 134.152 83.9112 133.969C84.874 133.732 85.8369 133.939 86.8056 134.59C87.6167 135.217 88.1185 136.098 88.2878 137.257C88.4337 138.913 87.5642 140.522 85.6618 142.095C82.5398 144.667 78.2449 145.986 72.7887 146.045C63.5336 146.045 57.739 143.68 55.4048 138.943C54.1735 136.518 53.5783 133.324 53.6075 129.356V122.2C53.6075 120.952 53.7125 119.74 53.9109 118.557C54.051 117.729 54.2319 116.919 54.4653 116.121C56.2218 109.982 60.5692 104.949 66.1479 101.975C69.6492 100.106 73.6407 99.0471 77.7839 99.0471C80.0072 99.0471 82.0205 99.5084 83.8061 100.348C85.0549 100.922 86.1987 101.691 87.2432 102.595C89.7233 104.843 90.9663 107.877 90.9663 111.691C90.9663 114.329 90.3477 116.611 89.0989 118.551C87.4475 121.147 84.6756 123.117 80.8067 124.471C77.5972 125.618 74.8486 126.795 72.5611 128.019C70.2736 129.244 68.4413 130.515 67.0699 131.822C67.0699 128.954 68.6105 126.328 71.0848 124.938C72.0476 124.4 73.098 123.844 74.2359 123.265C76.395 122.23 77.9881 120.734 79.0093 118.782C79.8146 117.268 80.2931 115.582 80.4449 113.737" fill="#FAF8F5"/>
<path d="M48.1747 143.467C46.8559 143.922 45.4204 144.236 43.8623 144.401C43.6581 144.425 43.4538 144.449 43.2379 144.461C42.4735 144.537 41.6798 144.567 40.857 144.567C40.2035 144.567 39.5849 144.549 38.9897 144.496C32.8624 144.058 29.793 141.297 29.793 136.228V103.69C29.793 99.5029 31.8354 97.4152 35.9144 97.4152V96.0432H15V97.4152C19.0848 97.4152 21.1273 99.5029 21.1273 103.69V138.357C21.1273 142.562 19.0965 144.662 15.035 144.662L15 145.933H41.3239" fill="#FAF8F5"/>
<path d="M41.438 145.881L42.5876 145.804C45.8146 145.284 48.499 144.196 50.6698 142.522C50.7981 142.427 50.9382 142.321 51.0666 142.214C51.1424 142.155 51.2066 142.096 51.2766 142.031C53.0214 140.523 53.8326 138.974 53.6867 137.383C53.5116 136.23 53.0156 135.342 52.1986 134.716C51.23 134.065 50.2729 133.858 49.3101 134.095C48.4114 134.272 47.6295 134.727 46.9934 135.473C46.2931 136.212 45.6921 137.205 45.1961 138.447C44.2274 140.872 43.5855 142.232 43.2703 142.528C42.4884 143.273 41.3096 144.036 39.7399 144.343C39.2614 144.438 38.2985 144.414 37.7441 144.414L38.211 145.881H41.438Z" fill="#FAF8F5"/>
<path d="M158.482 56.8601C156.921 62.1302 153.063 66.9199 146.941 71.2061C140.657 75.4924 135.116 77.8872 130.364 78.3372C129.782 78.4058 129.223 78.4287 128.664 78.4287C127.631 78.4287 126.629 78.3295 125.672 78.1312C124.317 77.8719 123.047 77.4067 121.838 76.7355C118.593 74.989 115.478 71.8925 112.47 67.4614L108.773 62.0768H108.766L107.005 59.499C106.049 58.1185 105.245 56.6847 104.549 55.2127C104.074 54.1831 103.661 53.1383 103.316 52.0705C100.607 43.8946 101.663 34.9255 105.697 27.3063C108.238 22.5243 111.942 18.2686 116.618 15.0577C118.646 13.6849 120.713 12.7468 122.84 12.1977C123.361 12.0528 123.896 11.9384 124.432 11.8468C126.284 11.5265 128.167 11.496 130.042 11.7019C130.953 11.824 131.825 12.0223 132.682 12.2816C136.042 13.3341 138.882 15.5611 141.216 18.9398C143.229 21.8761 144.277 24.8963 144.354 28.008C144.469 32.1799 142.839 36.5119 139.494 41.0117C139.349 41.2023 139.211 41.4006 139.088 41.5913C138.568 42.293 138.078 42.987 137.611 43.6658C137.19 44.2759 136.785 44.8784 136.394 45.4657C135.032 47.5326 133.869 49.4774 132.889 51.3307C132.675 51.7349 132.468 52.1315 132.277 52.5357C130.968 55.1975 130.073 57.6304 129.591 59.8117C127.601 56.9288 127.203 53.2832 128.427 50.0494C128.565 49.7062 128.71 49.3783 128.871 49.0503C129.223 48.3486 129.598 47.6241 129.996 46.869C130.21 46.4572 130.44 46.0377 130.677 45.6106C130.838 45.3284 130.999 45.0462 131.152 44.7488C131.267 44.5581 131.366 44.3598 131.458 44.1692C132.881 41.5303 133.425 38.8304 133.119 36.0695C132.866 33.7586 132.116 31.5087 130.876 29.3427C130.777 29.1596 130.67 28.9919 130.57 28.8241C130.318 28.4198 130.057 28.008 129.774 27.6114C128.542 25.9564 127.157 24.6065 125.595 23.5387C125.182 23.2413 124.761 22.9819 124.317 22.7531C123.873 22.4786 123.399 22.2574 122.917 22.0515C122.84 22.0057 122.748 21.9752 122.664 21.9371C119.817 20.8388 117.047 21.2202 114.368 23.104C112.776 24.1946 111.613 25.5293 110.909 27.1309C110.12 28.8317 109.86 30.8299 110.113 33.1332C110.281 34.9789 110.725 36.8856 111.406 38.8228C112.386 41.5913 113.886 44.4437 115.914 47.3877L124.7 60.1702C124.7 60.1702 124.715 60.1701 124.715 60.1625L130.631 68.7579V68.7427C130.723 68.8799 130.792 69.0172 130.884 69.1545C133.899 73.3874 138.69 73.2577 145.265 68.7655C147.936 66.9427 149.474 65.0894 149.887 63.2132C150.025 62.6489 149.704 60.6278 148.946 57.1957C148.556 55.4263 148.479 53.8628 148.709 52.49C148.869 51.1705 149.39 50.0723 150.278 49.1647C151.188 48.1656 152.428 47.647 154.02 47.6241C155.421 47.6927 156.661 48.2952 157.74 49.4393C159.171 51.1705 159.408 53.634 158.467 56.8525" fill="#CD6266"/>
<path d="M85.5088 74.3203L85.5111 74.322C88.0398 76.2196 91.009 77.7199 94.4334 78.8483C97.8653 79.9437 101.48 80.5 105.34 80.5H124.827C124.26 80.3141 123.705 80.1028 123.162 79.8663L85.5088 74.3203ZM85.5088 74.3203C82.9799 72.4449 80.98 70.2539 79.4795 67.7169L79.4783 67.7149M85.5088 74.3203L79.4783 67.7149M79.4783 67.7149C78.0025 65.2465 77.2441 62.5616 77.2441 59.6438V16.9695C77.2441 14.9342 78.1219 13.1655 79.8916 11.71L79.8917 11.7101M79.4783 67.7149L79.8917 11.7101M79.8917 11.7101L79.8993 11.7035M79.8917 11.7101L79.8993 11.7035M79.8993 11.7035C80.445 11.2361 81.0371 10.8511 81.6602 10.5674L81.6789 10.5589M79.8993 11.7035L81.6789 10.5589M81.6789 10.5589L81.6968 10.5489M81.6789 10.5589L81.6968 10.5489M81.6968 10.5489C82.0566 10.3479 82.4516 10.1842 82.8616 10.0372C83.5208 9.82492 84.1956 9.66111 84.9131 9.59707L84.9337 9.59523M81.6968 10.5489L84.9337 9.59523M84.9337 9.59523L84.9541 9.5917M84.9337 9.59523L84.9541 9.5917M84.9541 9.5917C85.3161 9.52895 85.7129 9.5 86.1163 9.5H86.4053C87.2249 9.5 88.0225 9.58064 88.7856 9.76089L88.7948 9.76306M84.9541 9.5917L88.7948 9.76306M88.7948 9.76306L88.804 9.76488M88.7948 9.76306L88.804 9.76488M88.804 9.76488C89.2023 9.84323 89.6024 9.95761 89.9894 10.1012L89.9894 10.1013M88.804 9.76488L89.9894 10.1013M89.9894 10.1013L89.999 10.1046M89.9894 10.1013L89.999 10.1046M89.999 10.1046C91.0133 10.4576 91.9599 10.992 92.8544 11.7131L92.8544 11.7131M89.999 10.1046L92.8544 11.7131M92.8544 11.7131C94.6637 13.1714 95.5665 14.9325 95.5665 16.9695M92.8544 11.7131L95.5665 16.9695M95.5665 16.9695V59.4229M95.5665 16.9695V59.4229M95.5665 59.4229C95.5665 61.28 96.4287 62.8475 98.0759 64.1421M95.5665 59.4229L98.0759 64.1421M98.0759 64.1421C99.7059 65.4506 101.59 66.079 103.712 66.079H107.75L111.949 70.9759C111.949 70.9763 111.95 70.9767 111.95 70.9772C115.522 75.2084 119.247 78.1667 123.162 79.8661L98.0759 64.1421Z" fill="#101010" stroke="white"/>
<path d="M85.7437 9V16.0714L84.458 14.7321V9.09949C84.8657 9.03061 85.3047 9 85.7437 9Z" fill="white"/>
<path d="M90.2437 9.99828V20.5714L88.958 17.9092V9.64282C89.3917 9.72602 89.8255 9.84702 90.2437 9.99828Z" fill="white"/>
<path d="M82.5299 9.64282V19.9285L81.2441 18.605V10.1874C81.6518 9.96803 82.0908 9.79408 82.5299 9.64282Z" fill="white"/>
<path d="M89.2489 33.4285H82.8757L82.5368 36.709C82.4926 37.0867 82.6768 37.4574 83.0083 37.6603L83.1041 37.7162C84.9019 38.8564 87.2449 38.8564 89.0279 37.7162L89.1237 37.6603C89.4552 37.4574 89.6394 37.0937 89.5952 36.709L89.2563 33.4285H89.2489ZM88.7184 37.1007L88.6374 37.1566C87.0754 38.1359 85.0492 38.1359 83.4872 37.1566L83.4062 37.1007C83.2883 37.0237 83.2293 36.8978 83.2441 36.7789L83.5241 34.1139H88.6005L88.8805 36.7789C88.8953 36.9118 88.8363 37.0237 88.7184 37.1007Z" fill="black"/>
<path d="M89.0484 25.5222L88.3489 25.0872C86.9351 24.2089 85.2013 24.2089 83.7875 25.0872L83.088 25.5222C82.6862 25.7684 82.4704 26.2527 82.5448 26.7534L82.8797 28.9285H89.2642L89.5841 26.7698C89.666 26.2609 89.4576 25.7766 89.0484 25.5222ZM88.6465 28.1323H83.4824L83.2592 26.622C83.2368 26.4661 83.3038 26.2937 83.4526 26.2198L84.1447 25.7848C85.3427 25.0543 86.8011 25.0543 88.0066 25.7848L88.7061 26.2198C88.84 26.3019 88.9219 26.4661 88.8847 26.6385L88.6614 28.1323H88.6465Z" fill="black"/>
<path d="M84.4588 41.3908L83.8887 41.7858L82.5303 39.6168L83.0934 39.2144L84.4588 41.3908Z" fill="black"/>
<path d="M89.6014 39.618L88.2289 41.7858L87.6729 41.3821L89.0313 39.2144L89.6014 39.618Z" fill="black"/>
<path d="M83.0934 39.2144L84.4588 41.3908L83.8887 41.7858L82.5303 39.6168L83.0934 39.2144Z" fill="#101010"/>
<path d="M82.5448 26.7534C82.4704 26.2527 82.6862 25.7684 83.088 25.5222L83.7875 25.0872C85.2014 24.2089 86.9353 24.2089 88.3492 25.0872L89.0487 25.5222C89.4506 25.7684 89.6664 26.2527 89.5845 26.7698L89.2645 28.9285H82.8797L82.5448 26.7534Z" fill="#101010"/>
<path d="M89.6014 39.618L88.2289 41.7858L87.6729 41.3821L89.0313 39.2144L89.6014 39.618Z" fill="#101010"/>
<path d="M89.0347 37.7162C87.2424 38.8564 84.9043 38.8564 83.1047 37.7162L83.0088 37.6603C82.6769 37.4574 82.4925 37.0937 82.5368 36.709L82.876 33.4285H89.2559L89.5952 36.709C89.6395 37.0867 89.4551 37.4574 89.1232 37.6603L89.0273 37.7162H89.0347Z" fill="#101010"/>
<path d="M92.6471 34.2963C92.5474 34.2362 92.4171 34.2137 92.3021 34.2587L90.7614 34.8671L90.5774 32.7717L91.114 26.5531C91.2443 24.9083 90.3704 23.3686 88.8603 22.6476L88.569 22.5049C86.783 21.6413 84.6903 21.6413 82.9195 22.5049L82.6283 22.6476C81.1258 23.3686 80.2289 24.9158 80.3746 26.5531L80.9112 32.7717L80.7272 34.8671L79.1864 34.2587C78.9948 34.1836 78.7802 34.2813 78.6958 34.4615C78.6805 34.5066 78.6729 34.5591 78.6729 34.5967V35.5655C78.6729 36.0087 78.9565 36.4142 79.3857 36.587L80.5509 37.0451L80.3899 38.8551C80.2443 40.5675 81.2331 42.1897 82.8582 42.8581L84.1307 43.3989C85.1579 43.8195 86.323 43.8195 87.3579 43.3989L88.6303 42.8581C90.2478 42.1897 91.2443 40.5675 91.0986 38.8551L90.9377 37.0451L92.1028 36.587C92.5321 36.4217 92.8157 36.0087 92.8157 35.5655V34.5967C92.8157 34.4765 92.7544 34.3714 92.6471 34.2963ZM80.5356 36.249L79.654 35.9035C79.5161 35.8584 79.4241 35.7082 79.4241 35.5655V35.1374L80.5356 35.5806V36.249ZM90.3704 26.4855L89.8338 32.7792L90.3627 38.9152C90.4854 40.3196 89.6652 41.6339 88.3467 42.1897L87.0742 42.7305C86.231 43.0759 85.2729 43.0759 84.4296 42.7305L83.1572 42.1897C81.8387 41.6415 81.0185 40.3196 81.1411 38.9152L81.6547 32.7792L81.1258 26.4855C81.0032 25.1561 81.7391 23.8869 82.9579 23.3011L83.2492 23.1584C84.8129 22.3998 86.6603 22.3998 88.2394 23.1584L88.5307 23.3011C89.7572 23.8869 90.4854 25.1561 90.3627 26.4855M92.0645 35.5655C92.0645 35.7082 91.9648 35.8509 91.8345 35.9035L90.953 36.249V35.5806L92.0645 35.1374V35.5655Z" fill="#101010"/>
<path d="M88.4454 23.2176L88.1626 23.0737C86.6297 22.3088 84.8364 22.3088 83.3184 23.0737L83.0356 23.2176C81.845 23.8083 81.1381 25.0882 81.2571 26.4287L81.7706 32.7753L81.272 38.9628C81.153 40.3791 81.9492 41.7044 83.2291 42.2649L84.4643 42.8101C85.2828 43.1585 86.213 43.1585 87.0315 42.8101L88.2668 42.2649C89.5467 41.712 90.3429 40.3791 90.2238 38.9628L89.7104 32.7753L90.2312 26.4287C90.3503 25.0882 89.636 23.8083 88.4528 23.2176M82.7677 25.5957L83.4672 25.1943C84.881 24.3839 86.6148 24.3839 88.0286 25.1943L88.7281 25.5957C89.1299 25.8229 89.3457 26.2697 89.2639 26.7468L88.9439 28.7386H82.5594L82.2245 26.7317C82.1501 26.2697 82.3659 25.8229 82.7677 25.5957ZM83.6309 41.4242L82.1947 39.2279L82.79 38.8189L84.2411 41.0304L83.6383 41.4318L83.6309 41.4242ZM87.8426 41.4393L87.2473 41.0304L88.6835 38.8341L89.2862 39.243L87.8352 41.4393H87.8426ZM88.8249 37.7208L88.7281 37.7814C86.9199 39.0158 84.561 39.0158 82.7454 37.7814L82.6486 37.7208C82.3138 37.5011 82.1278 37.1073 82.1724 36.6908L82.5147 33.1388H88.9514L89.2937 36.6908C89.3383 37.0997 89.1523 37.5011 88.8174 37.7208" fill="white"/>
</svg>
