<svg width="160" height="165" viewBox="0 0 160 165" fill="none" xmlns="http://www.w3.org/2000/svg">
<path d="M29.9351 61.6977V139.176C29.9351 144.98 34.6071 149.652 40.4105 149.652H115.965C121.769 149.652 126.441 144.98 126.441 139.176V56.9089L29.9351 61.6977Z" fill="#0060FF"/>
<path d="M29.9351 61.6977V139.176C29.9351 139.479 29.9504 139.778 29.9754 140.074H102.28C108.083 140.074 112.755 135.402 112.755 129.599V84.7554L126.441 71.0701V56.9089L29.9351 61.6977Z" fill="#0043E0"/>
<path d="M0 39.4529V121.025C0 126.82 4.66467 131.484 10.459 131.484H93.1451C98.9393 131.484 103.604 126.82 103.604 121.025V10.459C103.604 4.6647 98.9393 0 93.1451 0H39.4529L0 39.4529Z" fill="#52C7FF"/>
<path d="M39.4529 0L0 39.4529H28.9939C34.7882 39.4529 39.4529 34.7882 39.4529 28.9939V0Z" fill="#009FFF"/>
<path d="M19.6264 53.1367H26.2007C30.3395 53.1367 33.6714 56.4688 33.6714 60.6074V67.1817C33.6714 71.3204 30.3395 74.6523 26.2007 74.6523H19.6264C15.4877 74.6523 12.1558 71.3204 12.1558 67.1817V60.6074C12.1558 56.4688 15.4877 53.1367 19.6264 53.1367Z" fill="#E7EDFB"/>
<path d="M19.6264 89.1487H26.2007C30.3395 89.1487 33.6714 92.4807 33.6714 96.6194V103.194C33.6714 107.332 30.3395 110.664 26.2007 110.664H19.6264C15.4877 110.664 12.1558 107.332 12.1558 103.194V96.6194C12.1558 92.4807 15.4877 89.1487 19.6264 89.1487Z" fill="#E7EDFB"/>
<path d="M4.896 120.084V121.28H7.285V120.084H4.896ZM10.8718 120.084V121.28H13.263V120.084H10.8718ZM16.8477 120.084V121.28H19.2389V120.084H16.8477ZM22.8257 120.084V121.28H25.2147V120.084H22.8257ZM28.8015 120.084V121.28H31.1927V120.084H28.8015ZM34.7773 120.084V121.28H37.1685V120.084H34.7773ZM40.7554 120.084V121.28H43.1444V120.084H40.7554ZM46.7312 120.084V121.28H49.1224V120.084H46.7312ZM52.707 120.084V121.28H55.0982V120.084H52.707ZM58.6851 120.084V121.28H61.0741V120.084H58.6851ZM64.6609 120.084V121.28H67.0521V120.084H64.6609ZM70.6367 120.084V121.28H73.0279V120.084H70.6367ZM76.6147 120.084V121.28H79.0038V120.084H76.6147ZM82.5906 120.084V121.28H84.9818V120.084H82.5906ZM88.5664 120.084V121.28H90.9576V120.084H88.5664ZM94.5444 120.084V121.28H96.9334V120.084H94.5444Z" fill="#E7EDFB"/>
<path d="M51.6672 26.3606C51.0067 26.3606 50.4709 26.8955 50.47 27.556C50.4697 28.2175 51.0058 28.7538 51.6672 28.7538H67.537C68.1987 28.7541 68.7351 28.2177 68.7348 27.556C68.7339 26.8953 68.1978 26.3603 67.537 26.3606H51.6672ZM51.6672 37.0898C51.006 37.0898 50.47 37.6258 50.47 38.2869C50.4697 38.9484 51.0058 39.4847 51.6672 39.4847H89.6664C90.3281 39.485 90.8645 38.9486 90.8642 38.2869C90.8642 37.6255 90.3278 37.0894 89.6664 37.0898H51.6672ZM43.9918 56.6558C43.3311 56.6567 42.796 57.1929 42.7964 57.8536C42.7964 58.5141 43.3313 59.0498 43.9918 59.0508H60.7724C61.4327 59.0496 61.9673 58.5139 61.9673 57.8536C61.9676 57.1931 61.4329 56.6571 60.7724 56.6558H43.9918ZM25.5633 60.9045L21.9179 64.5498L20.3536 62.9861C19.8862 62.5191 19.1287 62.5191 18.6613 62.9861C18.1943 63.4536 18.1943 64.211 18.6613 64.6784L21.0715 67.0909C21.5399 67.5588 22.299 67.5578 22.7661 67.0885L27.2556 62.5991C27.7242 62.1313 27.7242 61.3721 27.2556 60.9044C26.8216 60.4703 26.0533 60.4158 25.5633 60.9045ZM115.965 148.454H40.4102C35.2493 148.454 121.126 148.454 115.965 148.454ZM43.9918 67.9964C43.3311 67.9973 42.796 68.5335 42.7964 69.1942C42.7973 69.854 43.332 70.3887 43.9918 70.3897H53.6272C54.2877 70.3897 54.8235 69.8547 54.8244 69.1942C54.8247 68.5328 54.2887 67.9964 53.6272 67.9964H43.9918ZM25.5633 96.9752L21.9179 100.618L20.3536 99.0539C19.8862 98.5869 19.1287 98.5869 18.6613 99.0539C18.1943 99.5214 18.1943 100.279 18.6613 100.746L21.0715 103.159C21.5392 103.628 22.2984 103.628 22.7661 103.159L27.2556 98.6675C27.7226 98.2001 27.7226 97.4427 27.2556 96.9752C26.7227 96.4423 25.9586 96.5787 25.5633 96.9752Z" fill="#0060FF"/>
<path d="M90.4663 33.2068C89.2186 33.7679 88.0637 34.377 87.0491 35.0496C87.0311 35.0618 87.0119 35.072 86.994 35.0842C86.7941 35.2181 86.5975 35.3539 86.4079 35.4916C86.4028 35.4948 86.3983 35.4986 86.3938 35.5018C85.9992 35.7888 85.6296 36.086 85.2818 36.3915C85.2754 36.3973 85.2677 36.4024 85.262 36.4075C85.1256 36.5273 84.9974 36.649 84.8687 36.772C84.7797 36.8572 84.6932 36.9443 84.608 37.0308C84.5183 37.1211 84.4286 37.2121 84.3435 37.3037C84.1673 37.4945 83.995 37.6867 83.8362 37.884V37.8859C83.7868 37.9474 83.7452 38.0114 83.6978 38.0729C83.4781 38.3593 83.2802 38.6533 83.0989 38.9524C83.0598 39.0164 83.0195 39.0792 82.983 39.1439C82.908 39.2739 82.8401 39.4065 82.7729 39.5391C82.7312 39.6224 82.6915 39.7069 82.6524 39.7915C82.6082 39.8869 82.5641 39.9824 82.5224 40.0784C82.5115 40.1041 82.4987 40.1297 82.4878 40.156C82.4859 40.1604 82.484 40.1656 82.4821 40.17C82.4052 40.3609 82.3354 40.5544 82.2739 40.7504C82.2419 40.8516 82.2162 40.9553 82.1881 41.0578C82.1483 41.2045 82.1131 41.3525 82.0824 41.5017C82.0644 41.5869 82.0459 41.6721 82.0311 41.7586C81.9901 41.9981 81.9562 42.2396 81.937 42.4856C81.8742 43.3324 81.8287 44.167 81.7948 44.9946C81.7896 45.1086 81.7871 45.2213 81.7826 45.3347C81.7525 46.1321 81.7314 46.9238 81.7256 47.7053C81.7775 79.7007 105.897 97.373 114.705 102.764C115.255 102.428 115.865 102.044 116.524 101.612C117.167 101.19 117.861 100.717 118.591 100.203C118.608 100.191 118.624 100.18 118.642 100.168C118.651 100.163 118.659 100.154 118.668 100.148C119.353 99.6642 120.078 99.1313 120.823 98.5663C121.149 98.3185 121.479 98.0642 121.815 97.8009C121.936 97.7055 122.054 97.6152 122.177 97.5178C122.688 97.1104 123.209 96.6857 123.737 96.2425C123.747 96.2348 123.756 96.2278 123.766 96.2201C123.794 96.1964 123.823 96.1707 123.851 96.1464C124.332 95.7416 124.82 95.3201 125.311 94.8858C125.423 94.7872 125.534 94.686 125.645 94.5867C126.146 94.139 126.651 93.6791 127.158 93.1999C127.177 93.182 127.196 93.1647 127.215 93.1468C127.222 93.1404 127.23 93.1333 127.238 93.1269C128.397 92.0297 129.57 90.8517 130.736 89.5918C130.739 89.588 130.743 89.5841 130.746 89.5796C130.753 89.5726 130.76 89.5643 130.767 89.5572C131.32 88.959 131.87 88.3396 132.419 87.7042C132.469 87.6459 132.519 87.5876 132.569 87.5286C133.115 86.8913 133.66 86.238 134.197 85.5635C134.211 85.5455 134.225 85.5283 134.24 85.5103C134.244 85.5052 134.248 85.4994 134.252 85.4943C134.82 84.7795 135.382 84.0422 135.934 83.2851C136.449 82.5792 136.952 81.8509 137.449 81.1079C137.612 80.8652 137.773 80.6218 137.934 80.3745C138.15 80.0421 138.365 79.7064 138.577 79.3669C138.824 78.9717 139.068 78.574 139.308 78.1698C139.438 77.952 139.564 77.7323 139.691 77.512C140.003 76.972 140.312 76.4256 140.611 75.8683C140.616 75.86 140.621 75.8523 140.625 75.844C140.684 75.7351 140.741 75.6224 140.798 75.5122C141.066 75.0068 141.326 74.4938 141.582 73.9749C141.675 73.7879 141.767 73.6015 141.857 73.4125C142.147 72.8104 142.43 72.2019 142.702 71.5819C142.773 71.4211 142.84 71.2571 142.91 71.0957C143.147 70.5436 143.378 69.9844 143.601 69.4175C143.654 69.283 143.709 69.1498 143.761 69.014C144.029 68.3184 144.286 67.6112 144.531 66.8938C144.57 66.7817 144.606 66.6683 144.643 66.5562C144.877 65.8568 145.101 65.1496 145.311 64.4297C145.327 64.3771 145.343 64.3259 145.358 64.2734C145.584 63.4932 145.795 62.7009 145.992 61.897C146.012 61.8144 146.031 61.7311 146.051 61.6485C146.447 59.9952 146.78 58.2921 147.038 56.537C147.047 56.4761 147.056 56.4159 147.065 56.3557C147.125 55.9368 147.182 55.5153 147.234 55.0913C147.234 55.0881 147.236 55.0843 147.236 55.0811C147.237 55.074 147.237 55.0663 147.238 55.0586C147.402 53.709 147.523 52.3306 147.598 50.9227C147.6 50.8868 147.602 50.851 147.605 50.8151C147.605 50.8023 147.606 50.7888 147.607 50.776C147.63 50.3212 147.646 49.8626 147.66 49.4014C147.66 49.3841 147.661 49.3675 147.662 49.3502C147.662 49.331 147.662 49.3118 147.662 49.2932C147.674 48.8205 147.684 48.3452 147.686 47.8654C147.676 46.1149 147.611 44.3239 147.474 42.4875C147.444 42.0942 147.386 41.7105 147.298 41.3352C147.199 40.9047 147.049 40.489 146.877 40.081C146.599 39.4213 146.242 38.7871 145.794 38.185C145.755 38.1331 145.716 38.0806 145.68 38.0281C145.643 37.9813 145.613 37.932 145.576 37.8853C145.4 37.6668 145.208 37.4542 145.01 37.2441C144.984 37.2165 144.957 37.1884 144.93 37.1608C144.765 36.9885 144.592 36.8207 144.413 36.6535C144.36 36.6042 144.308 36.5555 144.254 36.5068C143.818 36.1148 143.345 35.7382 142.835 35.3763C142.802 35.3532 142.769 35.3302 142.737 35.3071C142.56 35.1835 142.374 35.0643 142.189 34.9446C141.817 34.7031 141.435 34.4648 141.03 34.2381C140.618 34.0068 140.183 33.7865 139.739 33.57C139.609 33.5066 139.477 33.4431 139.344 33.3804C139.217 33.3208 139.083 33.2657 138.954 33.2074H90.4657L90.4663 33.2068Z" fill="#D7EAFD"/>
<path d="M94.7339 33.2068C93.4861 33.7679 92.3313 34.377 91.3166 35.0496C91.2987 35.0618 91.2795 35.072 91.2616 35.0842C91.0617 35.2181 90.8651 35.3539 90.6755 35.4916C90.6703 35.4948 90.6659 35.4986 90.6614 35.5018C90.2668 35.7888 89.8972 36.086 89.5494 36.3915C89.543 36.3973 89.5353 36.4024 89.5296 36.4075C89.3931 36.5273 89.265 36.649 89.1363 36.772C89.0472 36.8572 88.9608 36.9443 88.8756 37.0308C88.7859 37.1211 88.6962 37.2121 88.611 37.3037C88.4349 37.4945 88.2626 37.6867 88.1037 37.884V37.8859C88.0544 37.9474 88.0128 38.0114 87.9654 38.0729C87.7457 38.3593 87.5477 38.6533 87.3665 38.9524C87.3274 39.0164 87.287 39.0792 87.2505 39.1439C87.1756 39.2739 87.1077 39.4065 87.0404 39.5391C86.9988 39.6224 86.9591 39.7069 86.92 39.7915C86.8758 39.8869 86.8316 39.9824 86.79 40.0784C86.7791 40.1041 86.7663 40.1297 86.7554 40.156C86.7535 40.1604 86.7516 40.1656 86.7496 40.17C86.6728 40.3609 86.603 40.5544 86.5415 40.7504C86.5094 40.8516 86.4838 40.9553 86.4556 41.0578C86.4159 41.2045 86.3807 41.3525 86.3499 41.5017C86.332 41.5869 86.3134 41.6721 86.2987 41.7586C86.2577 41.9981 86.2238 42.2396 86.2045 42.4856C86.1418 43.3324 86.0963 44.167 86.0623 44.9946C86.0572 45.1086 86.0547 45.2213 86.0502 45.3347C86.0201 46.1321 85.9989 46.9238 85.9932 47.7053C86.045 79.7007 110.164 97.373 118.973 102.764C119.523 102.428 120.132 102.044 120.792 101.612C121.435 101.19 122.128 100.717 122.859 100.203C122.876 100.191 122.892 100.18 122.909 100.168C122.918 100.163 122.927 100.154 122.936 100.148C123.621 99.6642 124.346 99.1313 125.09 98.5663C125.416 98.3185 125.747 98.0642 126.082 97.8009C126.203 97.7055 126.322 97.6152 126.445 97.5178C126.956 97.1104 127.476 96.6857 128.005 96.2425C128.014 96.2348 128.024 96.2278 128.033 96.2201C128.062 96.1964 128.09 96.1707 128.119 96.1464C128.6 95.7416 129.087 95.3201 129.579 94.8858C129.69 94.7872 129.801 94.686 129.913 94.5867C130.414 94.139 130.918 93.6791 131.426 93.1999C131.444 93.182 131.463 93.1647 131.483 93.1468C131.49 93.1404 131.498 93.1333 131.505 93.1269C132.664 92.0297 133.837 90.8517 135.004 89.5918C135.007 89.588 135.01 89.5841 135.014 89.5796C135.02 89.5726 135.027 89.5643 135.034 89.5572C135.588 88.959 136.137 88.3396 136.686 87.7042C136.736 87.6459 136.787 87.5876 136.837 87.5286C137.383 86.8913 137.928 86.238 138.465 85.5635C138.479 85.5455 138.493 85.5283 138.507 85.5103C138.512 85.5052 138.516 85.4994 138.52 85.4943C139.088 84.7795 139.65 84.0422 140.202 83.2851C140.717 82.5792 141.219 81.8509 141.717 81.1079C141.879 80.8652 142.041 80.6218 142.201 80.3745C142.418 80.0421 142.632 79.7064 142.844 79.3669C143.091 78.9717 143.335 78.574 143.576 78.1698C143.705 77.952 143.832 77.7323 143.958 77.512C144.27 76.972 144.58 76.4256 144.879 75.8683C144.883 75.86 144.889 75.8523 144.893 75.844C144.952 75.7351 145.008 75.6224 145.066 75.5122C145.334 75.0068 145.594 74.4938 145.85 73.9749C145.942 73.7879 146.034 73.6015 146.125 73.4125C146.414 72.8104 146.697 72.2019 146.97 71.5819C147.041 71.4211 147.108 71.2571 147.178 71.0957C147.415 70.5436 147.645 69.9844 147.868 69.4175C147.921 69.283 147.976 69.1498 148.029 69.014C148.297 68.3184 148.554 67.6112 148.799 66.8938C148.837 66.7817 148.873 66.6683 148.911 66.5562C149.145 65.8568 149.368 65.1496 149.579 64.4297C149.594 64.3771 149.61 64.3259 149.626 64.2734C149.852 63.4932 150.063 62.7009 150.259 61.897C150.279 61.8144 150.298 61.7311 150.318 61.6485C150.715 59.9952 151.047 58.2921 151.306 56.537C151.315 56.4761 151.324 56.4159 151.332 56.3557C151.393 55.9368 151.449 55.5153 151.501 55.0913C151.501 55.0881 151.503 55.0843 151.503 55.0811C151.505 55.074 151.505 55.0663 151.505 55.0586C151.67 53.709 151.791 52.3306 151.866 50.9227C151.868 50.8868 151.87 50.851 151.872 50.8151C151.873 50.8023 151.873 50.7888 151.874 50.776C151.897 50.3212 151.914 49.8626 151.927 49.4014C151.927 49.3841 151.929 49.3675 151.929 49.3502C151.93 49.331 151.929 49.3118 151.929 49.2932C151.942 48.8205 151.952 48.3452 151.954 47.8654C151.944 46.1149 151.879 44.3239 151.742 42.4875C151.712 42.0942 151.654 41.7105 151.566 41.3352C151.466 40.9047 151.317 40.489 151.145 40.081C150.867 39.4213 150.51 38.7871 150.061 38.185C150.022 38.1331 149.984 38.0806 149.947 38.0281C149.911 37.9813 149.881 37.932 149.844 37.8853C149.667 37.6668 149.476 37.4542 149.277 37.2441C149.251 37.2165 149.224 37.1884 149.198 37.1608C149.033 36.9885 148.86 36.8207 148.68 36.6535C148.627 36.6042 148.575 36.5555 148.522 36.5068C148.086 36.1148 147.613 35.7382 147.102 35.3763C147.069 35.3532 147.037 35.3302 147.004 35.3071C146.827 35.1835 146.642 35.0643 146.456 34.9446C146.084 34.7031 145.703 34.4648 145.298 34.2381C144.885 34.0068 144.45 33.7865 144.007 33.57C143.876 33.5066 143.745 33.4431 143.612 33.3804C143.485 33.3208 143.351 33.2657 143.221 33.2074H94.7333L94.7339 33.2068Z" fill="#E8F4FF"/>
<path d="M118.973 94.2433C110.164 99.6341 86.045 117.307 85.9932 149.302C86.0066 151.003 86.072 152.74 86.2052 154.522C86.2788 155.51 86.5421 156.444 86.9668 157.323C87.2358 157.882 87.5695 158.419 87.9647 158.934C88.0121 158.996 88.0538 159.06 88.1031 159.121C88.1031 159.122 88.1031 159.123 88.1031 159.123C89.7518 161.164 92.3703 162.854 95.6198 164.196H142.328C145.577 162.854 148.196 161.163 149.844 159.123C149.923 159.026 149.988 158.923 150.062 158.824C150.421 158.342 150.729 157.843 150.981 157.323C151.406 156.444 151.668 155.51 151.742 154.522C151.879 152.684 151.944 150.894 151.954 149.143C151.823 117.249 127.77 99.6257 118.974 94.2427L118.973 94.2433Z" fill="#E8F4FF"/>
<path d="M118.96 160.759C118.095 160.759 117.229 160.754 116.367 160.744C105.909 160.621 95.9163 159.765 92.0411 158.177V158.176C91.9982 158.158 91.9617 158.14 91.92 158.122C91.0322 157.739 90.4904 157.314 90.3853 156.847C90.2694 156.332 90.2117 155.83 90.2002 155.339C90.2457 146.093 111.289 140.986 118.974 139.428C126.647 140.984 147.632 146.077 147.747 155.293C147.738 155.799 147.682 156.316 147.562 156.847C147.46 157.301 146.941 157.715 146.096 158.09C146.032 158.119 145.975 158.148 145.906 158.176C142.031 159.765 132.038 160.621 121.58 160.743C120.708 160.753 119.834 160.758 118.96 160.758V160.759Z" fill="#0043E0"/>
<path d="M91.4555 60.9001V60.9014C91.4247 60.9398 91.3985 60.9795 91.369 61.018C90.7342 61.8462 90.3461 62.7634 90.2711 63.7723C90.1885 64.8836 90.1468 65.968 90.1392 67.0294C97.775 87.212 113.476 96.6631 118.973 100.028C124.463 96.6682 144.188 85.0777 147.685 63.4238C147.679 62.331 147.639 61.214 147.553 60.0674C147.48 59.0861 147.109 58.1926 146.504 57.3823C146.458 57.3208 146.417 57.2561 146.369 57.1952C145.013 55.5177 133.87 67.2318 120.117 56.3773C112.557 50.4094 92.871 59.1463 91.4548 60.9001H91.4555Z" fill="#0043E0"/>
<path d="M118.356 97.9497H119.468V147.637H118.356V97.9497Z" fill="#0043E0"/>
<path d="M81.5732 33.2068H156.251C158.149 33.2068 159.688 34.7454 159.688 36.6433C159.688 38.5412 158.149 40.0797 156.251 40.0797H81.5732C79.6753 40.0797 78.1367 38.5412 78.1367 36.6433C78.1367 34.7454 79.6753 33.2068 81.5732 33.2068Z" fill="#0043E0"/>
<path d="M81.5732 157.324H156.251C158.149 157.324 159.688 158.863 159.688 160.76C159.688 162.658 158.149 164.197 156.251 164.197H81.5732C79.6753 164.197 78.1367 162.658 78.1367 160.76C78.1367 158.863 79.6753 157.324 81.5732 157.324Z" fill="#0043E0"/>
</svg>
